<svg width="720" height="720" viewBox="0 0 720 720" fill="none" xmlns="http://www.w3.org/2000/svg">
<path d="M720 550.656H0V551.016H720V550.656Z" fill="#EBEBEB"/>
<path d="M647.856 573.826H616.637V574.186H647.856V573.826Z" fill="#EBEBEB"/>
<path d="M496.325 566.366H447.207V566.726H496.325V566.366Z" fill="#EBEBEB"/>
<path d="M635.213 560.462H571.089V560.822H635.213V560.462Z" fill="#EBEBEB"/>
<path d="M249.149 567.72H233.107V568.08H249.149V567.72Z" fill="#EBEBEB"/>
<path d="M220.277 567.72H164.995V568.08H220.277V567.72Z" fill="#EBEBEB"/>
<path d="M135.374 561.643H95.4863V562.003H135.374V561.643Z" fill="#EBEBEB"/>
<path d="M311.141 289.267L311.789 270.345L300.182 266.544C299.683 260.131 298.643 253.773 297.072 247.536L306.922 240.336L300.24 222.566L288.058 223.545C285.169 217.82 281.797 212.352 277.978 207.201L284.285 196.675L271.325 182.837L260.438 188.409C255.543 184.225 250.313 180.449 244.8 177.12L246.557 165.024L229.277 157.19L221.357 166.464C215.247 164.509 208.985 163.064 202.637 162.144L199.757 150.293L180.778 149.645L177.034 161.265C170.628 161.769 164.274 162.805 158.04 164.361L150.725 154.569L132.955 161.208L133.934 173.39C128.212 176.322 122.745 179.728 117.59 183.571L106.992 177.12L93.096 190.08L98.6688 201.024C94.4833 205.895 90.7254 211.117 87.4368 216.633L75.3552 214.819L67.464 232.099L76.7952 240.005C74.8269 246.111 73.3817 252.373 72.4752 258.725L60.48 261.734L59.832 280.656L71.496 284.457C71.9785 290.866 73.0144 297.221 74.592 303.451L64.7424 310.651L71.4384 328.435L83.6208 327.456C86.5019 333.185 89.8745 338.653 93.7008 343.8L87.3792 354.326L100.339 368.165L111.226 362.592C116.108 366.775 121.329 370.547 126.835 373.867L125.021 385.948L142.301 393.797L150.264 384.523C156.374 386.495 162.635 387.964 168.984 388.915L171.864 400.766L190.843 401.414L194.587 389.793C200.997 389.284 207.355 388.248 213.595 386.697L220.795 396.489L238.565 389.851L237.643 377.668C243.355 374.718 248.82 371.313 253.987 367.488L264.456 373.795L278.352 360.835L272.779 349.891C276.966 345.021 280.724 339.798 284.011 334.281L296.093 336.096L303.984 318.816L294.653 310.896C296.654 304.794 298.124 298.531 299.045 292.176L311.141 289.267ZM183.283 350.568C168.434 350.066 154.067 345.172 142 336.504C129.932 327.835 120.707 315.783 115.49 301.871C110.274 287.959 109.301 272.813 112.694 258.347C116.087 243.882 123.694 230.748 134.552 220.607C145.411 210.466 159.033 203.773 173.696 201.375C188.359 198.976 203.404 200.981 216.928 207.135C230.451 213.288 241.846 223.315 249.671 235.945C257.495 248.576 261.398 263.244 260.885 278.093C260.201 297.993 251.643 316.807 237.09 330.398C222.538 343.989 203.184 351.244 183.283 350.568Z" fill="#EBEBEB"/>
<path d="M635.04 226.685L639.806 222.235L637.92 218.477C639.359 216.793 640.655 214.991 641.794 213.091L645.97 213.711L648.662 207.749L645.466 205.027C646.154 202.92 646.66 200.756 646.978 198.562L651.082 197.539L651.283 191.002L647.28 189.706C647.104 187.492 646.748 185.295 646.214 183.139L649.598 180.619L647.294 174.499L643.104 174.831C642.093 172.857 640.923 170.969 639.605 169.186L641.779 165.586L637.301 160.805L633.557 162.72C631.87 161.284 630.069 159.989 628.171 158.847L628.776 154.671L622.829 151.949L620.093 155.16C617.981 154.503 615.818 154.021 613.627 153.72L612.605 149.631L606.067 149.386L604.757 153.418C602.551 153.586 600.364 153.943 598.219 154.483L595.714 151.099L589.579 153.389L589.925 157.594C587.945 158.594 586.057 159.765 584.28 161.093L580.651 158.919L575.87 163.368L577.728 167.04C576.278 168.719 574.978 170.521 573.84 172.426L569.678 171.807L566.971 177.768L570.182 180.504C569.517 182.609 569.035 184.767 568.742 186.955L564.624 187.978L564.422 194.515L568.44 195.811C568.604 198.026 568.956 200.223 569.491 202.378L566.093 204.883L568.397 211.003L572.602 210.687C573.612 212.66 574.782 214.548 576.101 216.331L573.926 219.931L578.405 224.712L582.149 222.797C583.832 224.237 585.633 225.533 587.534 226.671L586.915 230.832L592.877 233.554L595.613 230.357C597.726 231.008 599.888 231.489 602.078 231.797L603.101 235.887L609.638 236.131L610.949 232.099C613.154 231.932 615.342 231.575 617.486 231.034L619.992 234.418L626.126 232.128L625.795 227.923C627.769 226.921 629.653 225.751 631.426 224.424L635.04 226.685ZM601.027 199.138C599.77 197.79 598.94 196.1 598.643 194.281C598.347 192.462 598.596 190.596 599.36 188.919C600.124 187.241 601.368 185.829 602.936 184.859C604.503 183.889 606.323 183.405 608.165 183.47C610.007 183.534 611.788 184.144 613.284 185.221C614.779 186.298 615.922 187.795 616.566 189.521C617.211 191.248 617.33 193.127 616.906 194.921C616.483 196.714 615.537 198.342 614.189 199.599C613.294 200.442 612.24 201.1 611.089 201.535C609.938 201.969 608.712 202.17 607.483 202.127C606.254 202.084 605.045 201.798 603.927 201.285C602.809 200.772 601.804 200.042 600.97 199.138H601.027Z" fill="#EBEBEB"/>
<path d="M460.8 420.969L445.91 410.673C444.451 405.312 442.444 400.115 439.92 395.165L443.736 380.189L422.136 357.062L406.93 359.841C402.159 356.983 397.107 354.624 391.853 352.8L382.608 337.233L350.928 336.153L340.646 351.043C335.291 352.501 330.1 354.504 325.152 357.019L310.176 353.203L287.05 374.803L289.829 389.981C286.973 394.761 284.618 399.823 282.802 405.086L267.235 414.331L266.155 446.011L281.059 456.293C282.494 461.683 284.498 466.906 287.035 471.873L283.176 486.72L304.776 509.846L319.882 507.081C324.688 509.943 329.774 512.307 335.059 514.137L344.29 529.675L375.97 530.769L386.237 515.88C391.64 514.421 396.88 512.413 401.875 509.889L416.765 513.691L439.906 492.091L437.126 476.913C439.991 472.133 442.346 467.065 444.154 461.793L459.72 452.549L460.8 420.969ZM362.232 469.051C355.199 468.811 348.395 466.49 342.681 462.383C336.967 458.276 332.599 452.567 330.129 445.978C327.659 439.389 327.198 432.215 328.805 425.364C330.412 418.513 334.015 412.292 339.157 407.488C344.299 402.684 350.75 399.513 357.694 398.375C364.639 397.237 371.765 398.184 378.171 401.096C384.577 404.008 389.976 408.754 393.686 414.734C397.395 420.714 399.248 427.66 399.01 434.693C398.679 444.125 394.619 453.041 387.721 459.483C380.823 465.924 371.651 469.366 362.218 469.051H362.232Z" fill="#EBEBEB"/>
<path d="M494.712 331.2H494.611L469.67 330.35C469.165 330.341 468.67 330.204 468.232 329.952C467.794 329.701 467.427 329.342 467.165 328.91L460.44 317.606C456.815 316.28 453.309 314.652 449.957 312.739L439.2 314.597C438.699 314.688 438.183 314.652 437.699 314.491C437.216 314.33 436.781 314.049 436.435 313.675L419.4 295.445C419.042 295.067 418.788 294.603 418.662 294.099C418.536 293.594 418.542 293.066 418.68 292.565L421.402 281.894C419.715 278.437 418.337 274.837 417.283 271.137L406.44 263.649C406.019 263.361 405.679 262.97 405.45 262.515C405.221 262.059 405.11 261.553 405.13 261.043L405.979 236.102C405.996 235.599 406.136 235.107 406.387 234.67C406.638 234.233 406.993 233.865 407.419 233.597L418.752 226.872C420.059 223.256 421.683 219.762 423.605 216.432L421.618 205.589C421.525 205.085 421.56 204.566 421.722 204.081C421.883 203.595 422.164 203.157 422.539 202.809L440.77 185.789C441.147 185.43 441.609 185.174 442.114 185.045C442.618 184.917 443.147 184.92 443.65 185.054L454.363 187.79C457.812 186.103 461.402 184.72 465.091 183.657L472.579 172.814C472.858 172.383 473.246 172.035 473.704 171.805C474.162 171.574 474.674 171.47 475.186 171.504L500.112 172.368C500.619 172.378 501.115 172.516 501.555 172.767C501.995 173.019 502.365 173.377 502.632 173.808L509.357 185.126C512.956 186.447 516.434 188.076 519.754 189.993L530.64 187.992C531.141 187.899 531.658 187.934 532.141 188.096C532.625 188.257 533.06 188.538 533.405 188.913L550.44 207.144C550.795 207.523 551.048 207.986 551.174 208.49C551.3 208.994 551.295 209.522 551.16 210.024L548.424 220.723C550.111 224.174 551.498 227.763 552.571 231.451L563.4 238.939C563.82 239.228 564.161 239.618 564.39 240.074C564.619 240.529 564.729 241.036 564.71 241.545L563.861 266.472C563.844 266.977 563.704 267.471 563.453 267.91C563.202 268.349 562.848 268.72 562.421 268.992L551.088 275.717C549.772 279.324 548.149 282.813 546.235 286.142L548.222 297C548.315 297.501 548.28 298.018 548.119 298.501C547.957 298.985 547.676 299.419 547.301 299.765L528.955 316.8C528.578 317.157 528.114 317.411 527.61 317.537C527.105 317.664 526.577 317.658 526.075 317.52L515.419 314.798C511.947 316.477 508.339 317.86 504.634 318.931L497.218 329.76C496.95 330.187 496.582 330.542 496.145 330.793C495.708 331.045 495.216 331.184 494.712 331.2ZM471.542 324.331L493.142 325.065L500.342 314.712C500.741 314.107 501.353 313.676 502.056 313.502C506.108 312.394 510.04 310.884 513.792 308.995C514.446 308.68 515.19 308.603 515.894 308.779L525.974 311.357L541.814 296.597L540 286.185C539.86 285.458 539.993 284.704 540.374 284.069C542.513 280.503 544.275 276.724 545.63 272.793C545.859 272.081 546.341 271.476 546.984 271.094L557.827 264.672L558.562 243.072L548.194 235.872C547.647 235.499 547.238 234.958 547.027 234.331C547.027 234.259 547.027 234.173 547.027 234.086C545.918 230.106 544.413 226.247 542.534 222.566C542.201 221.907 542.119 221.15 542.304 220.435L544.896 210.24L530.136 194.4L519.782 196.301C519.059 196.432 518.313 196.299 517.68 195.926C514.107 193.783 510.324 192.012 506.39 190.641C506.165 190.569 505.947 190.472 505.742 190.353C505.327 190.094 504.982 189.739 504.734 189.317L498.24 178.445L476.64 177.696L469.44 188.078C469.011 188.687 468.377 189.121 467.654 189.302C463.644 190.398 459.755 191.899 456.048 193.781C455.394 194.114 454.641 194.196 453.931 194.011L443.736 191.419L427.896 206.179L429.797 216.504C429.909 217.155 429.814 217.825 429.523 218.419L429.379 218.664C427.238 222.243 425.476 226.037 424.123 229.982C423.885 230.659 423.416 231.23 422.798 231.595L411.955 238.032L411.221 259.632L421.603 266.832C422.195 267.237 422.624 267.839 422.813 268.531C423.892 272.575 425.393 276.494 427.291 280.224C427.394 280.436 427.476 280.658 427.536 280.886C427.644 281.36 427.644 281.852 427.536 282.326L424.944 292.406L439.704 308.246L449.986 306.36C450.704 306.228 451.446 306.361 452.074 306.734C455.674 308.873 459.48 310.644 463.435 312.019C464.149 312.231 464.753 312.711 465.12 313.358L471.542 324.331ZM484.891 297.014C484.358 297.014 483.826 297.014 483.293 297.014C471.322 296.803 459.919 291.873 451.566 283.296C443.213 274.719 438.585 263.19 438.691 251.218C438.796 239.246 443.626 227.801 452.129 219.372C460.632 210.944 472.12 206.215 484.092 206.215C496.064 206.215 507.552 210.944 516.055 219.372C524.558 227.801 529.388 239.246 529.493 251.218C529.599 263.19 524.971 274.719 516.618 283.296C508.265 291.873 496.862 296.803 484.891 297.014ZM484.891 211.925C474.43 212.105 464.464 216.41 457.162 223.903C449.861 231.396 445.814 241.471 445.905 251.933C445.995 262.395 450.214 272.398 457.644 279.764C465.074 287.13 475.113 291.263 485.575 291.263C496.038 291.263 506.076 287.13 513.506 279.764C520.936 272.398 525.155 262.395 525.246 251.933C525.336 241.471 521.29 231.396 513.988 223.903C506.686 216.41 496.72 212.105 486.259 211.925H484.891Z" fill="#EBEBEB"/>
<path d="M552.154 151.661L541.815 148.896L539.05 138.557L543.096 134.525L547.359 143.352L556.2 147.629L552.154 151.661Z" fill="#E0E0E0"/>
<path d="M552.787 144.749C553.235 144.302 553.589 143.771 553.831 143.186C554.073 142.602 554.198 141.976 554.198 141.343C554.198 140.711 554.073 140.085 553.831 139.5C553.589 138.916 553.235 138.385 552.787 137.938C552.34 137.49 551.809 137.136 551.225 136.894C550.64 136.652 550.014 136.527 549.382 136.527C548.749 136.527 548.123 136.652 547.539 136.894C546.954 137.136 546.423 137.49 545.976 137.938L551.117 130.219L558 133.704L559.512 140.904L552.787 144.749Z" fill="#E0E0E0"/>
<path d="M542.275 135.36L549.85 127.786L560.16 130.536L562.939 140.861L555.365 148.435L545.04 145.656L542.275 135.36ZM556.027 141.552C556.702 140.877 557.161 140.018 557.346 139.082C557.532 138.146 557.436 137.177 557.071 136.296C556.706 135.414 556.087 134.661 555.294 134.131C554.501 133.602 553.569 133.319 552.615 133.319C551.661 133.319 550.728 133.602 549.935 134.131C549.142 134.661 548.524 135.414 548.158 136.296C547.793 137.177 547.697 138.146 547.883 139.082C548.069 140.018 548.528 140.877 549.202 141.552C550.114 142.447 551.343 142.946 552.621 142.941C553.898 142.935 555.123 142.426 556.027 141.523V141.552Z" fill="#F0F0F0"/>
<path d="M129.917 427.262L135.461 425.764L136.944 420.22L134.784 418.06L132.494 422.798L127.742 425.088L129.917 427.262Z" fill="#E0E0E0"/>
<path d="M129.6 423.547C129.167 423.052 128.938 422.411 128.96 421.754C128.981 421.097 129.252 420.472 129.717 420.007C130.182 419.542 130.807 419.271 131.464 419.249C132.122 419.228 132.763 419.456 133.258 419.89L130.507 415.757L126.72 417.6L125.914 421.488L129.6 423.547Z" fill="#E0E0E0"/>
<path d="M135.216 418.492L131.155 414.432L125.611 415.872L124.171 421.416L128.16 425.52L133.704 424.08L135.216 418.492ZM127.843 421.819C127.576 421.585 127.36 421.299 127.208 420.978C127.056 420.658 126.972 420.309 126.96 419.954C126.949 419.6 127.01 419.247 127.14 418.917C127.27 418.586 127.467 418.287 127.718 418.036C127.969 417.785 128.269 417.588 128.599 417.458C128.929 417.327 129.282 417.266 129.637 417.278C129.991 417.29 130.34 417.374 130.66 417.526C130.981 417.678 131.267 417.894 131.501 418.161C131.934 418.656 132.163 419.297 132.141 419.954C132.12 420.612 131.849 421.236 131.384 421.701C130.919 422.167 130.294 422.437 129.637 422.459C128.979 422.481 128.338 422.252 127.843 421.819Z" fill="#F0F0F0"/>
<path d="M109.958 123.35L114.566 127.958C115.143 128.524 115.918 128.842 116.726 128.842C117.534 128.842 118.31 128.524 118.886 127.958C119.449 127.38 119.764 126.605 119.764 125.798C119.764 124.991 119.449 124.216 118.886 123.638L114.293 119.044C113.715 118.481 112.94 118.166 112.133 118.166C111.326 118.166 110.551 118.481 109.973 119.044C109.409 119.618 109.092 120.39 109.089 121.194C109.086 121.999 109.398 122.772 109.958 123.35Z" fill="#F0F0F0"/>
<path d="M106.718 111.902C107.921 111.568 109.195 111.592 110.384 111.971C111.573 112.351 112.625 113.069 113.411 114.039C114.198 115.008 114.684 116.185 114.81 117.427C114.936 118.669 114.698 119.92 114.123 121.028C113.548 122.136 112.662 123.052 111.574 123.663C110.485 124.274 109.243 124.554 107.997 124.469C106.752 124.384 105.559 123.937 104.564 123.183C103.57 122.429 102.817 121.401 102.398 120.225C102.133 119.395 102.034 118.521 102.107 117.653C102.181 116.784 102.425 115.939 102.827 115.165C103.228 114.392 103.779 113.705 104.447 113.145C105.114 112.585 105.887 112.163 106.718 111.902Z" fill="#E0E0E0"/>
<path d="M101.707 119.455L102.374 121.311L116.062 116.394L115.395 114.538L101.707 119.455Z" fill="#F0F0F0"/>
<path d="M360 615.686C514.199 615.686 639.202 608.388 639.202 599.385C639.202 590.383 514.199 583.085 360 583.085C205.801 583.085 80.7983 590.383 80.7983 599.385C80.7983 608.388 205.801 615.686 360 615.686Z" fill="#F5F5F5"/>
<path d="M124.877 173.736C123.437 167.385 124.07 162.057 126.806 157.708C129.542 153.36 134.006 150.508 140.357 149.068C146.707 147.628 152.194 148.204 156.485 150.883C160.776 153.561 163.685 158.083 165.125 164.275C166.141 168.097 166.225 172.107 165.37 175.968C164.532 179.174 162.763 182.061 160.286 184.262C157.344 186.739 153.813 188.415 150.034 189.129C146.329 190.113 142.45 190.246 138.686 189.518C135.415 188.723 132.456 186.968 130.19 184.478C127.483 181.442 125.647 177.73 124.877 173.736ZM136.886 171.057C137.779 174.974 139.147 177.624 140.99 179.006C141.942 179.64 143.012 180.076 144.136 180.286C145.26 180.497 146.415 180.477 147.531 180.23C148.648 179.982 149.703 179.512 150.633 178.846C151.562 178.18 152.348 177.333 152.942 176.356C153.979 174.355 153.994 171.172 153.014 166.838C152.179 163.18 150.83 160.675 148.968 159.321C148.03 158.648 146.954 158.194 145.817 157.992C144.681 157.79 143.514 157.846 142.402 158.155C141.288 158.363 140.237 158.821 139.327 159.495C138.416 160.168 137.671 161.039 137.146 162.043C136.08 164.16 135.979 167.04 136.886 171.057Z" fill="#263238"/>
<path d="M170.769 168.984C170.258 167.021 170.167 164.973 170.502 162.973C170.837 160.973 171.59 159.066 172.713 157.377C173.972 155.583 175.573 154.055 177.424 152.882C179.275 151.708 181.339 150.911 183.499 150.537C189.134 149.26 193.761 149.928 197.381 152.539C200.426 154.9 202.497 158.299 203.198 162.089C203.899 165.878 203.182 169.793 201.182 173.088C198.936 176.515 195.278 178.8 190.209 179.942C186.304 181.034 182.138 180.697 178.459 178.992C176.492 178.03 174.774 176.626 173.44 174.89C172.106 173.154 171.192 171.132 170.769 168.984ZM181.584 166.492C181.875 168.505 182.858 170.353 184.363 171.72C184.96 172.171 185.647 172.487 186.379 172.646C187.11 172.805 187.867 172.803 188.597 172.64C189.328 172.477 190.014 172.157 190.608 171.702C191.202 171.247 191.69 170.668 192.038 170.006C192.792 168.072 192.863 165.938 192.24 163.958C191.937 161.993 190.965 160.192 189.489 158.86C188.917 158.396 188.244 158.07 187.525 157.908C186.806 157.745 186.059 157.751 185.342 157.924C184.595 158.079 183.893 158.402 183.289 158.869C182.685 159.335 182.196 159.933 181.857 160.617C181.082 162.483 180.985 164.562 181.584 166.492Z" fill="#263238"/>
<path d="M213.955 185.141L205.128 146.261L215.208 143.957L216.158 148.118C216.869 146.459 217.902 144.956 219.197 143.697C220.617 142.492 222.314 141.656 224.136 141.264C225.819 140.806 227.591 140.78 229.287 141.187C230.984 141.595 232.55 142.424 233.842 143.597C236.688 146.257 238.618 149.75 239.357 153.576C240.422 158.256 240.106 162.086 238.435 165.096C237.641 166.535 236.543 167.784 235.217 168.756C233.892 169.728 232.371 170.4 230.76 170.726C229.208 171.094 227.599 171.158 226.022 170.913C224.51 170.649 223.069 170.075 221.789 169.229L224.842 182.664L213.955 185.141ZM219.154 157.982C219.418 159.781 220.317 161.425 221.688 162.619C222.238 163.04 222.876 163.331 223.554 163.471C224.232 163.61 224.933 163.595 225.605 163.425C226.228 163.3 226.814 163.031 227.314 162.638C227.814 162.245 228.215 161.741 228.485 161.165C229.097 159.362 229.097 157.408 228.485 155.606C228.222 153.799 227.354 152.134 226.022 150.883C225.529 150.473 224.947 150.182 224.323 150.032C223.699 149.882 223.048 149.878 222.422 150.019C221.761 150.162 221.14 150.452 220.606 150.869C220.073 151.285 219.64 151.817 219.341 152.424C218.636 154.199 218.57 156.164 219.154 157.982Z" fill="#263238"/>
<path d="M243.979 158.831L254.462 155.39C255.02 156.403 255.888 157.211 256.939 157.694C258.07 158.021 259.267 158.047 260.411 157.77C261.556 157.492 262.607 156.92 263.462 156.11C263.701 155.856 263.875 155.547 263.968 155.211C264.06 154.875 264.07 154.521 263.995 154.18C263.909 153.79 263.707 153.435 263.417 153.161C263.127 152.886 262.762 152.705 262.368 152.639C260.741 152.461 259.099 152.461 257.472 152.639C254.741 152.872 251.995 152.872 249.264 152.639C247.665 152.407 246.166 151.723 244.944 150.667C243.64 149.538 242.739 148.015 242.378 146.329C242.017 144.643 242.215 142.885 242.942 141.321C243.782 139.648 245.087 138.253 246.701 137.303C248.998 135.998 251.493 135.079 254.088 134.582C256.565 133.91 259.126 133.599 261.691 133.66C263.302 133.764 264.864 134.258 266.242 135.1C267.709 136.09 268.955 137.375 269.899 138.873L259.819 142.199C259.442 141.449 258.816 140.853 258.048 140.515C256.998 140.139 255.858 140.089 254.779 140.371C253.825 140.504 252.941 140.943 252.259 141.623C252.043 141.855 251.886 142.137 251.803 142.443C251.72 142.749 251.714 143.071 251.784 143.38C251.862 143.721 252.041 144.03 252.298 144.266C252.555 144.503 252.878 144.656 253.224 144.705C254.834 144.892 256.462 144.858 258.062 144.604C260.839 144.202 263.656 144.163 266.443 144.489C268.196 144.737 269.838 145.493 271.166 146.663C272.367 147.752 273.202 149.186 273.557 150.767C273.926 152.463 273.79 154.23 273.168 155.851C272.407 157.769 271.081 159.411 269.366 160.559C266.841 162.21 264.011 163.341 261.043 163.886C255.907 165.057 252.067 165.158 249.523 164.188C247.044 163.198 245.053 161.275 243.979 158.831Z" fill="#263238"/>
<path d="M279.144 123.22H290.966V132.292L288.792 150.537H281.477L279.144 132.321V123.22ZM279.72 153.288H290.75V163.051H279.72V153.288Z" fill="#263238"/>
<path d="M185.299 247.076H185.04C178.56 244.556 174.686 242.108 172.67 239.156C171.092 239.455 169.46 239.232 168.019 238.522C166.332 237.696 164.932 236.382 164.002 234.749C163.513 235.124 162.937 235.37 162.328 235.463C161.718 235.556 161.096 235.494 160.517 235.282C158.742 234.618 157.228 233.401 156.197 231.812C155.552 232.292 154.75 232.513 153.95 232.431C149.63 232.085 143.87 223.56 143.453 214.488C143.449 214.297 143.518 214.111 143.646 213.969C143.775 213.827 143.953 213.74 144.144 213.725C144.239 213.721 144.333 213.736 144.422 213.769C144.511 213.802 144.592 213.851 144.662 213.916C144.731 213.98 144.787 214.057 144.827 214.143C144.867 214.229 144.889 214.322 144.893 214.416C145.296 223.056 150.811 230.732 154.08 230.991C154.318 231.018 154.559 230.997 154.788 230.93C155.018 230.864 155.233 230.752 155.419 230.602C154.293 228.549 153.586 226.293 153.339 223.964C153.091 221.636 153.309 219.281 153.979 217.037C155.218 212.717 156.312 211.018 157.637 211.277C160.114 211.896 159.782 221.357 158.472 227.535C158.273 228.649 157.863 229.715 157.262 230.674C158.111 232.098 159.393 233.213 160.92 233.856C161.327 234.011 161.77 234.046 162.196 233.957C162.623 233.868 163.014 233.658 163.325 233.352C162.202 230.573 161.885 226.772 163.498 221.933C165.514 215.554 166.378 215.381 166.824 215.266C166.992 215.231 167.166 215.242 167.329 215.297C167.491 215.353 167.635 215.452 167.746 215.583C169.085 217.095 167.486 227.002 165.816 231.898C165.62 232.487 165.349 233.049 165.01 233.568C165.782 235.126 167.041 236.39 168.595 237.168C169.615 237.664 170.748 237.878 171.878 237.788C171.749 237.514 171.634 237.24 171.518 236.952C170.381 233.856 170.942 230.3 173.232 226.037C174.744 223.229 175.982 221.904 177.134 221.904C177.44 221.909 177.738 222 177.994 222.169C178.249 222.337 178.45 222.575 178.574 222.855C179.827 225.173 178.92 232.82 176.443 236.621C175.863 237.493 175.057 238.19 174.11 238.637C176.04 241.172 179.712 243.404 185.63 245.679C185.719 245.711 185.801 245.76 185.87 245.824C185.939 245.888 185.995 245.966 186.034 246.051C186.073 246.137 186.094 246.23 186.097 246.325C186.099 246.419 186.082 246.513 186.048 246.6C185.992 246.75 185.889 246.878 185.753 246.964C185.618 247.05 185.459 247.089 185.299 247.076ZM177.12 223.359C177.12 223.359 176.299 223.359 174.485 226.743C172.397 230.602 171.864 233.784 172.858 236.463C172.978 236.795 173.122 237.117 173.29 237.428C174.07 237.105 174.733 236.553 175.19 235.844C177.206 232.762 178.171 226.426 177.422 223.949C177.322 223.445 177.12 223.359 177.12 223.359ZM166.781 217.296C166.001 218.936 165.356 220.636 164.851 222.38C163.747 225.402 163.556 228.682 164.304 231.812L164.434 231.437C165.946 226.873 166.752 222.104 166.824 217.296H166.781ZM157.306 212.76C157.061 212.976 156.355 213.884 155.362 217.397C154.186 221.34 154.557 225.583 156.398 229.263C156.694 228.619 156.911 227.942 157.046 227.247C158.587 220.176 158.155 213.783 157.349 212.76H157.306Z" fill="#263238"/>
<path d="M240.048 322.56C237.746 322.582 235.48 321.991 233.482 320.846C233.317 320.748 233.198 320.588 233.15 320.402C233.101 320.217 233.127 320.019 233.223 319.853C233.27 319.772 233.333 319.701 233.409 319.644C233.484 319.588 233.57 319.547 233.661 319.524C233.752 319.502 233.847 319.497 233.94 319.512C234.033 319.526 234.122 319.559 234.202 319.608C239.343 322.618 245.981 320.515 247.349 318.312C247.448 318.174 247.518 318.017 247.555 317.852C247.592 317.686 247.596 317.514 247.565 317.347C244.936 317.498 242.333 316.757 240.178 315.245C236.506 312.955 236.218 312.264 236.247 311.717C236.254 311.56 236.303 311.407 236.389 311.275C236.475 311.144 236.595 311.038 236.736 310.968C238.176 310.248 244.671 313.229 247.378 315.014C247.702 315.23 248.002 315.481 248.271 315.763C249.334 315.522 250.293 314.947 251.007 314.122C251.408 313.65 251.699 313.094 251.856 312.494H251.568C249.264 312.725 246.96 311.731 244.498 309.456C242.799 307.901 242.151 306.821 242.367 305.971C242.432 305.732 242.564 305.517 242.748 305.352C242.932 305.186 243.159 305.076 243.403 305.035C245.391 304.531 250.315 306.634 252.317 308.837C252.763 309.316 253.081 309.901 253.239 310.536C255.125 309.658 257.112 307.656 259.459 304.387C259.514 304.309 259.583 304.243 259.664 304.192C259.744 304.141 259.834 304.107 259.927 304.091C260.021 304.075 260.117 304.077 260.21 304.099C260.303 304.12 260.39 304.159 260.467 304.214C260.622 304.327 260.726 304.495 260.758 304.683C260.79 304.872 260.748 305.065 260.64 305.222C257.919 309.024 255.643 311.184 253.368 312.062C253.25 313.127 252.814 314.131 252.115 314.942C251.286 315.907 250.196 316.611 248.976 316.973C249.045 317.317 249.044 317.67 248.975 318.014C248.906 318.358 248.769 318.684 248.573 318.974C247.363 321.034 243.879 322.56 240.048 322.56ZM238.767 312.566C239.256 312.926 239.947 313.402 240.941 314.006C242.489 315.051 244.269 315.703 246.125 315.907C243.807 314.517 241.339 313.397 238.767 312.566ZM243.792 306.446C244.206 307.225 244.78 307.907 245.477 308.448C247.608 310.421 249.552 311.328 251.424 311.098H251.885C251.783 310.65 251.564 310.238 251.251 309.902C249.235 307.627 244.8 306.216 243.792 306.446Z" fill="#263238"/>
<path d="M259.114 320.587L236.678 324.663L216.302 213.466L173.016 221.328L102.456 346.608L110.03 387.951L200.534 371.52L206.726 405.331L250.013 397.44L243.821 363.629L266.256 359.554L259.114 320.587ZM145.57 341.28L183.01 275.659L193.45 332.597L145.57 341.28Z" fill="#8E51FF"/>
<path d="M439.819 205.92C439.138 198.93 437.59 192.052 435.211 185.443C432.764 179.113 429.365 173.194 425.131 167.89C420.119 161.719 413.895 156.641 406.843 152.971C399.163 148.757 388.978 145.824 376.286 144.173C349.934 140.736 329.4 145.411 314.683 158.199C299.966 170.986 290.27 195.466 285.595 231.639C283.729 245.157 283.246 258.831 284.155 272.448C285.115 284.928 287.41 294.975 291.038 302.587C295.656 312.854 302.941 321.695 312.134 328.191C321.226 334.575 333.706 338.794 349.574 340.848C377.779 344.525 398.693 339.106 412.315 324.591C425.938 310.075 434.962 285.547 439.387 251.007C441.355 236.051 441.5 220.911 439.819 205.92Z" fill="#8E51FF"/>
<path d="M362.549 326.059C359.079 325.944 355.349 325.627 351.591 325.138C338.4 323.424 328.205 320.083 321.264 315.216C314.342 310.329 308.87 303.662 305.424 295.92L305.352 295.762C302.587 290.002 300.773 281.722 299.981 271.282C299.142 258.741 299.586 246.148 301.306 233.698C306.447 193.781 317.059 177.12 325.051 170.179C334.383 162.087 346.983 158.429 363.543 159.005C366.941 159.12 370.541 159.423 374.242 159.898C384.869 161.338 393.293 163.642 399.255 166.896C404.406 169.549 408.967 173.218 412.661 177.682C415.894 181.713 418.492 186.215 420.365 191.031C422.278 196.4 423.516 201.987 424.051 207.663C425.587 221.414 425.447 235.302 423.634 249.019C419.645 280.037 411.927 301.839 400.709 313.819C392.386 322.69 379.901 326.779 362.535 326.117L362.549 326.059Z" fill="#263238"/>
<path d="M390.73 206.338L390.917 200.88L387.562 199.786C387.419 197.94 387.12 196.11 386.669 194.314L389.549 192.212L387.619 187.085L384.106 187.373C383.279 185.726 382.316 184.15 381.226 182.664L383.04 179.626L379.296 175.637L376.157 177.25C374.752 176.042 373.249 174.954 371.664 173.996L372.168 170.511L367.186 168.25L364.91 170.928C363.149 170.357 361.342 169.934 359.51 169.661L358.661 166.248L353.189 166.061L352.109 169.402C350.264 169.55 348.433 169.848 346.637 170.295L344.52 167.415L339.394 169.33L339.682 172.844C338.034 173.671 336.459 174.634 334.973 175.724L331.949 173.895L327.946 177.624L329.558 180.778C328.347 182.182 327.263 183.69 326.318 185.285L322.834 184.752L320.558 189.735L323.251 192.01C322.667 193.773 322.243 195.585 321.984 197.424L318.557 198.288L318.37 203.732L321.725 204.826C321.865 206.677 322.164 208.512 322.618 210.312L319.738 212.4L321.667 217.527L325.181 217.239C325.999 218.891 326.963 220.467 328.061 221.948L326.232 224.986L329.976 228.975L333.115 227.376C334.52 228.579 336.023 229.663 337.608 230.616L337.09 234.101L342.072 236.362L344.362 233.698C346.128 234.266 347.939 234.685 349.776 234.951L350.626 238.378L356.083 238.565L357.163 235.21C359.014 235.069 360.85 234.771 362.65 234.317L364.738 237.197L369.864 235.282L369.59 231.783C371.232 230.945 372.806 229.982 374.299 228.903L377.323 230.717L381.326 226.988L379.728 223.834C380.934 222.435 382.014 220.932 382.954 219.341L386.438 219.86L388.714 214.877L386.035 212.602C386.608 210.842 387.027 209.035 387.288 207.202L390.73 206.338ZM353.866 224.007C349.601 223.851 345.477 222.435 342.016 219.938C338.555 217.441 335.911 213.974 334.419 209.976C332.926 205.977 332.651 201.627 333.629 197.472C334.607 193.318 336.793 189.546 339.913 186.633C343.032 183.721 346.945 181.797 351.157 181.106C355.368 180.415 359.69 180.987 363.577 182.75C367.464 184.513 370.741 187.388 372.995 191.012C375.25 194.636 376.38 198.847 376.243 203.112C376.152 205.956 375.5 208.753 374.325 211.344C373.15 213.934 371.475 216.267 369.396 218.209C367.316 220.15 364.874 221.662 362.209 222.657C359.544 223.652 356.709 224.111 353.866 224.007Z" fill="#8E51FF"/>
<path opacity="0.3" d="M413.453 306.533L413.856 302.847L411.638 301.954C411.635 300.699 411.529 299.447 411.322 298.21L413.323 296.928L412.301 293.371H409.91C409.438 292.214 408.864 291.101 408.197 290.045L409.55 288.087L407.246 285.207L405.043 286.128C404.15 285.245 403.187 284.436 402.163 283.709L402.696 281.376L399.456 279.591L397.757 281.304C396.6 280.828 395.405 280.447 394.186 280.167L393.782 277.819L390.11 277.402L389.203 279.619C387.952 279.625 386.704 279.741 385.474 279.965L384.192 277.92L380.635 278.971V281.362C379.478 281.84 378.365 282.418 377.309 283.09L375.35 281.65L372.47 283.954L373.392 286.157C372.514 287.051 371.71 288.014 370.987 289.037L368.654 288.519L366.883 291.759L368.582 293.443C368.1 294.603 367.719 295.803 367.445 297.029L365.083 297.418L364.694 301.09L366.898 302.011C366.899 303.257 367.009 304.5 367.229 305.727L365.198 307.008L366.235 310.565H368.64C369.121 311.716 369.699 312.824 370.368 313.877L368.928 315.835L371.232 318.715L373.464 317.779C374.35 318.665 375.314 319.47 376.344 320.184L375.84 322.56L379.08 324.331L380.765 322.647C381.923 323.112 383.118 323.482 384.336 323.755L384.754 326.117L388.426 326.52L389.318 324.317C390.592 324.315 391.864 324.209 393.12 324L394.402 326.031L397.944 324.994V322.603C399.102 322.117 400.219 321.539 401.285 320.875L403.214 322.315L406.094 319.997L405.158 317.794C406.046 316.901 406.859 315.938 407.592 314.914L409.91 315.432L411.696 312.192L409.997 310.522C410.46 309.362 410.83 308.168 411.106 306.951L413.453 306.533ZM394.92 305.093C394.311 306.208 393.384 307.117 392.258 307.705C391.132 308.294 389.857 308.535 388.593 308.398C387.33 308.261 386.136 307.753 385.162 306.937C384.188 306.122 383.477 305.036 383.12 303.816C382.764 302.597 382.776 301.299 383.157 300.087C383.539 298.875 384.271 297.803 385.261 297.007C386.251 296.211 387.455 295.727 388.721 295.615C389.987 295.504 391.257 295.77 392.371 296.381C393.861 297.202 394.965 298.579 395.443 300.211C395.92 301.844 395.732 303.599 394.92 305.093Z" fill="#8E51FF"/>
<path d="M433.858 244.296L429.538 241.33C429.112 239.788 428.534 238.292 427.81 236.866L428.904 232.546L422.683 225.879L418.363 226.685C416.993 225.869 415.546 225.189 414.043 224.655L411.379 220.162L402.264 219.859L399.298 224.179C397.753 224.598 396.257 225.177 394.834 225.907L390.514 224.799L383.846 231.034L384.653 235.354C383.825 236.718 383.145 238.166 382.622 239.674L378.144 242.338L377.827 251.453L382.147 254.419C382.566 255.973 383.145 257.479 383.875 258.912L382.781 263.232L389.002 269.899L393.322 269.107C394.693 269.922 396.139 270.602 397.642 271.138L400.291 275.616L409.421 275.933L412.373 271.613C413.93 271.19 415.44 270.612 416.88 269.885L421.2 270.979L427.867 264.759L427.075 260.439C427.894 259.07 428.574 257.622 429.106 256.119L433.584 253.455L433.858 244.296ZM405.446 258.149C403.42 258.079 401.459 257.41 399.813 256.227C398.166 255.043 396.908 253.397 396.196 251.498C395.485 249.599 395.353 247.532 395.817 245.557C396.281 243.583 397.32 241.791 398.802 240.407C400.284 239.023 402.144 238.11 404.145 237.784C406.147 237.457 408.2 237.731 410.046 238.571C411.891 239.411 413.447 240.78 414.514 242.504C415.582 244.228 416.115 246.229 416.045 248.256C415.947 250.972 414.777 253.539 412.79 255.393C410.803 257.247 408.163 258.238 405.446 258.149Z" fill="white"/>
<path d="M465.12 171.533L465.869 169.733C466.378 169.446 466.86 169.114 467.309 168.74H468.979L470.938 165.86L470.304 164.319C470.547 163.806 470.739 163.27 470.88 162.72L472.32 161.396L471.715 158.012L469.901 157.263C469.616 156.752 469.284 156.27 468.907 155.823V154.152L466.099 152.194L464.544 152.842C463.976 152.642 463.386 152.507 462.787 152.439L461.462 150.999L458.093 151.604L457.33 153.418C456.795 153.695 456.289 154.023 455.818 154.397H454.162L452.203 157.277L452.837 158.818C452.643 159.388 452.508 159.977 452.434 160.575L450.994 161.914L451.598 165.284L453.413 166.032C453.688 166.546 454.016 167.028 454.392 167.472V169.128L457.272 171.087L458.813 170.453C459.389 170.64 459.982 170.771 460.584 170.842L461.909 172.282L465.12 171.533ZM457.92 162.202C457.784 161.451 457.874 160.676 458.178 159.976C458.482 159.275 458.988 158.681 459.63 158.268C460.272 157.855 461.022 157.642 461.786 157.655C462.549 157.669 463.292 157.909 463.919 158.344C464.546 158.78 465.03 159.392 465.309 160.102C465.588 160.813 465.651 161.59 465.488 162.336C465.325 163.083 464.945 163.763 464.395 164.293C463.845 164.823 463.15 165.178 462.398 165.312C461.393 165.489 460.358 165.261 459.519 164.679C458.681 164.096 458.106 163.206 457.92 162.202Z" fill="#8E51FF"/>
<path d="M425.679 161.986L424.57 161.05C426.946 158.103 429.883 155.656 433.21 153.85L433.887 155.117C430.722 156.84 427.932 159.175 425.679 161.986Z" fill="#8E51FF"/>
<path d="M437.169 153.793L436.608 152.468C441.925 150.157 447.74 149.226 453.513 149.761L453.369 151.201C447.837 150.679 442.263 151.571 437.169 153.793Z" fill="#8E51FF"/>
<path d="M434.448 163.757L433.267 162.95C436.736 158.266 441.786 154.997 447.48 153.749L447.753 155.189C442.432 156.351 437.708 159.393 434.448 163.757Z" fill="#8E51FF"/>
<path d="M338.889 302.4C338.693 302.395 338.507 302.312 338.371 302.17L335.361 299.06C333.827 298.921 332.309 298.641 330.825 298.224L326.117 300.298C326.013 300.355 325.896 300.385 325.778 300.385C325.66 300.385 325.544 300.355 325.44 300.298L317.549 295.071C317.447 295.004 317.364 294.912 317.309 294.803C317.253 294.695 317.227 294.573 317.232 294.452V289.325C316.269 288.121 315.42 286.829 314.697 285.466L310.651 283.911C310.538 283.867 310.437 283.795 310.359 283.702C310.281 283.609 310.228 283.497 310.205 283.378L308.333 274.104C308.308 273.986 308.313 273.863 308.349 273.747C308.384 273.632 308.448 273.527 308.534 273.442L311.645 270.432C311.793 268.899 312.073 267.382 312.48 265.896L310.406 261.188C310.35 261.084 310.32 260.968 310.32 260.849C310.32 260.731 310.35 260.615 310.406 260.511L315.633 252.62C315.698 252.516 315.79 252.431 315.899 252.376C316.008 252.32 316.13 252.295 316.253 252.303L321.379 252.375C322.58 251.407 323.873 250.558 325.238 249.84L326.808 245.794C326.849 245.682 326.919 245.582 327.009 245.504C327.1 245.426 327.209 245.372 327.326 245.348L336.6 243.476C336.718 243.45 336.841 243.454 336.957 243.49C337.073 243.525 337.178 243.59 337.262 243.677L340.272 246.788C341.811 246.928 343.334 247.208 344.822 247.623L349.517 245.549C349.623 245.493 349.742 245.463 349.862 245.463C349.983 245.463 350.101 245.493 350.208 245.549L358.085 250.776C358.185 250.846 358.267 250.939 358.324 251.047C358.382 251.154 358.413 251.274 358.416 251.396L358.329 256.522C359.297 257.726 360.15 259.018 360.878 260.381L364.91 261.951C365.023 261.992 365.122 262.062 365.2 262.152C365.279 262.243 365.332 262.352 365.357 262.469L367.243 271.743C367.265 271.861 367.258 271.983 367.223 272.099C367.188 272.214 367.126 272.319 367.041 272.405L363.917 275.429C363.773 276.958 363.493 278.471 363.081 279.951L365.155 284.66C365.212 284.766 365.241 284.885 365.241 285.005C365.241 285.126 365.212 285.245 365.155 285.351L360 293.17C359.932 293.268 359.842 293.348 359.736 293.403C359.631 293.458 359.514 293.487 359.395 293.487L354.254 293.415C353.049 294.37 351.762 295.218 350.409 295.949L348.84 299.996C348.797 300.11 348.726 300.211 348.632 300.289C348.539 300.367 348.427 300.42 348.307 300.442L339.033 302.4H338.889ZM330.782 296.64C330.849 296.627 330.917 296.627 330.984 296.64C332.539 297.093 334.136 297.388 335.75 297.519C335.923 297.539 336.085 297.615 336.211 297.735L339.091 300.759L347.587 299.045L349.113 295.1C349.184 294.94 349.306 294.809 349.459 294.725C350.897 293.981 352.254 293.089 353.505 292.061C353.638 291.95 353.808 291.893 353.981 291.903L358.977 291.975L363.758 284.775L361.742 280.196C361.685 280.037 361.685 279.864 361.742 279.706C362.188 278.149 362.482 276.553 362.621 274.94C362.635 274.765 362.712 274.602 362.837 274.479L365.861 271.599L364.147 263.103L360.216 261.576C360.047 261.515 359.908 261.391 359.827 261.231C359.08 259.794 358.187 258.439 357.163 257.184C357.06 257.053 357.005 256.891 357.005 256.724V251.712L349.805 246.932L345.24 248.948C345.077 249.006 344.899 249.006 344.736 248.948C343.175 248.497 341.574 248.203 339.955 248.069C339.782 248.049 339.62 247.973 339.494 247.853L336.614 244.829L328.118 246.557L326.606 250.56C326.546 250.726 326.428 250.863 326.275 250.949C324.831 251.691 323.47 252.584 322.214 253.613C322.152 253.669 322.079 253.712 322 253.74C321.921 253.767 321.837 253.778 321.753 253.772L316.757 253.7L311.961 260.9L313.977 265.479C314.023 265.576 314.047 265.681 314.047 265.788C314.047 265.896 314.023 266.001 313.977 266.098C313.551 267.618 313.271 269.176 313.142 270.749C313.129 270.924 313.052 271.088 312.926 271.21L309.902 274.09L311.63 282.586L315.547 284.112C315.722 284.185 315.865 284.318 315.95 284.487C316.693 285.914 317.581 287.26 318.6 288.504C318.707 288.634 318.763 288.798 318.758 288.965V293.976L325.958 298.757L330.537 296.741C330.612 296.693 330.695 296.659 330.782 296.64ZM337.853 291.975C334.387 291.972 330.986 291.03 328.013 289.248C325.039 287.467 322.604 284.913 320.966 281.859C319.328 278.804 318.548 275.363 318.71 271.901C318.871 268.438 319.968 265.085 321.883 262.196C323.715 259.424 326.235 257.176 329.196 255.67C332.157 254.164 335.459 253.452 338.777 253.605C342.096 253.757 345.318 254.768 348.129 256.539C350.94 258.31 353.243 260.78 354.813 263.708C356.383 266.636 357.166 269.921 357.086 273.242C357.006 276.563 356.066 279.807 354.356 282.656C352.647 285.504 350.228 287.861 347.335 289.494C344.442 291.128 341.175 291.982 337.853 291.975ZM323.093 262.988C321.154 265.912 320.127 269.346 320.14 272.854C320.153 276.363 321.206 279.788 323.165 282.698C325.125 285.609 327.904 287.872 331.15 289.203C334.396 290.534 337.964 290.873 341.403 290.176C344.841 289.48 347.996 287.779 350.468 285.29C352.941 282.8 354.619 279.634 355.292 276.19C355.965 272.747 355.601 269.181 354.248 265.945C352.894 262.708 350.611 259.945 347.688 258.005C345.749 256.708 343.572 255.807 341.283 255.355C338.994 254.903 336.639 254.908 334.352 255.372C332.065 255.835 329.893 256.746 327.961 258.054C326.028 259.361 324.374 261.038 323.093 262.988Z" fill="white"/>
<path d="M613.195 333.576L590.587 330.523L605.535 218.477L561.931 212.602L456.163 309.975L450.605 351.634L541.743 363.931L537.192 398.016L580.795 403.891L585.346 369.821L607.954 372.874L613.195 333.576ZM498.831 318.139L554.645 267.264L546.984 324.634L498.831 318.139Z" fill="#8E51FF"/>
<path d="M567.547 402.826H567.36C567.173 402.791 567.008 402.684 566.9 402.527C566.792 402.371 566.75 402.178 566.784 401.991L600.48 217.757C600.518 217.572 600.626 217.409 600.782 217.302C600.938 217.195 601.128 217.151 601.315 217.181C601.502 217.216 601.667 217.324 601.775 217.48C601.883 217.637 601.925 217.829 601.891 218.016L568.267 402.236C568.234 402.402 568.144 402.552 568.013 402.66C567.881 402.767 567.717 402.826 567.547 402.826Z" fill="#263238"/>
<path d="M597.355 220.853C597.344 221.166 597.208 221.462 596.979 221.675C596.749 221.888 596.444 222.002 596.131 221.99C595.818 221.979 595.522 221.844 595.309 221.614C595.095 221.385 594.982 221.08 594.993 220.766C595.005 220.453 595.14 220.157 595.37 219.944C595.599 219.731 595.904 219.617 596.217 219.629C596.531 219.64 596.826 219.776 597.04 220.005C597.253 220.235 597.367 220.54 597.355 220.853Z" fill="#263238"/>
<path d="M592.56 245.765C592.551 245.999 592.474 246.224 592.337 246.413C592.2 246.602 592.01 246.747 591.791 246.828C591.573 246.909 591.334 246.924 591.107 246.87C590.88 246.816 590.674 246.696 590.515 246.525C590.356 246.354 590.251 246.14 590.214 245.909C590.177 245.679 590.209 245.443 590.306 245.23C590.403 245.018 590.561 244.839 590.76 244.716C590.959 244.594 591.189 244.533 591.422 244.541C591.577 244.547 591.73 244.583 591.871 244.647C592.012 244.712 592.139 244.804 592.245 244.917C592.351 245.031 592.433 245.164 592.487 245.31C592.541 245.455 592.566 245.61 592.56 245.765Z" fill="#263238"/>
<path d="M587.765 270.72C587.759 270.875 587.723 271.027 587.659 271.169C587.594 271.31 587.502 271.437 587.389 271.542C587.275 271.648 587.142 271.73 586.996 271.784C586.851 271.838 586.696 271.863 586.541 271.857C586.386 271.854 586.234 271.819 586.093 271.756C585.952 271.693 585.825 271.603 585.719 271.491C585.613 271.378 585.531 271.246 585.477 271.101C585.422 270.956 585.397 270.802 585.403 270.648C585.407 270.492 585.442 270.338 585.505 270.195C585.569 270.052 585.66 269.923 585.774 269.816C585.888 269.709 586.022 269.625 586.169 269.57C586.315 269.515 586.471 269.49 586.627 269.496C586.939 269.511 587.233 269.647 587.445 269.876C587.658 270.105 587.773 270.408 587.765 270.72Z" fill="#263238"/>
<path d="M578.319 296.64C578.287 296.929 578.149 297.196 577.933 297.39C577.716 297.584 577.436 297.691 577.145 297.691C576.855 297.691 576.574 297.584 576.358 297.39C576.141 297.196 576.004 296.929 575.972 296.64C575.953 296.475 575.97 296.308 576.021 296.15C576.071 295.992 576.155 295.846 576.265 295.723C576.376 295.599 576.512 295.5 576.663 295.432C576.815 295.364 576.979 295.329 577.145 295.329C577.311 295.329 577.475 295.364 577.627 295.432C577.779 295.5 577.914 295.599 578.025 295.723C578.136 295.846 578.219 295.992 578.27 296.15C578.32 296.308 578.337 296.475 578.319 296.64Z" fill="#263238"/>
<path d="M578.16 320.501C578.157 320.657 578.122 320.81 578.058 320.952C577.994 321.094 577.902 321.222 577.788 321.328C577.674 321.434 577.54 321.516 577.394 321.569C577.247 321.623 577.092 321.646 576.936 321.639C576.703 321.63 576.477 321.552 576.288 321.415C576.099 321.279 575.955 321.089 575.873 320.87C575.792 320.651 575.777 320.413 575.831 320.186C575.885 319.959 576.005 319.753 576.176 319.594C576.347 319.435 576.562 319.33 576.792 319.293C577.023 319.256 577.259 319.288 577.471 319.385C577.684 319.482 577.862 319.64 577.985 319.838C578.108 320.037 578.169 320.268 578.16 320.501Z" fill="#263238"/>
<path d="M573.365 345.413C573.359 345.647 573.283 345.874 573.148 346.065C573.013 346.257 572.824 346.403 572.606 346.487C572.387 346.57 572.148 346.587 571.92 346.535C571.692 346.482 571.484 346.363 571.324 346.193C571.164 346.022 571.058 345.808 571.019 345.577C570.981 345.346 571.012 345.109 571.109 344.896C571.206 344.682 571.364 344.503 571.563 344.38C571.762 344.256 571.993 344.195 572.227 344.204C572.538 344.215 572.831 344.348 573.044 344.575C573.257 344.801 573.372 345.102 573.365 345.413Z" fill="#263238"/>
<path d="M568.569 370.325C568.558 370.639 568.423 370.937 568.194 371.152C567.965 371.368 567.66 371.485 567.345 371.477C567.19 371.471 567.038 371.435 566.897 371.371C566.756 371.306 566.629 371.214 566.523 371.101C566.417 370.987 566.335 370.854 566.281 370.708C566.227 370.563 566.202 370.408 566.208 370.253C566.213 370.098 566.248 369.945 566.311 369.804C566.375 369.662 566.466 369.535 566.579 369.428C566.692 369.322 566.825 369.239 566.97 369.184C567.115 369.129 567.27 369.103 567.425 369.108C567.58 369.113 567.732 369.148 567.874 369.212C568.015 369.275 568.143 369.366 568.249 369.479C568.355 369.592 568.438 369.725 568.493 369.87C568.548 370.015 568.574 370.17 568.569 370.325Z" fill="#263238"/>
<path d="M563.76 395.252C563.752 395.485 563.674 395.711 563.537 395.9C563.4 396.089 563.21 396.233 562.992 396.315C562.773 396.396 562.535 396.411 562.307 396.357C562.08 396.303 561.874 396.183 561.715 396.012C561.556 395.841 561.452 395.626 561.414 395.396C561.377 395.165 561.409 394.929 561.506 394.717C561.603 394.504 561.761 394.326 561.96 394.203C562.159 394.08 562.389 394.019 562.623 394.028C562.778 394.031 562.932 394.066 563.074 394.13C563.216 394.194 563.344 394.286 563.45 394.4C563.556 394.514 563.638 394.648 563.691 394.794C563.744 394.941 563.768 395.096 563.76 395.252Z" fill="#263238"/>
<path d="M577.138 297.288C576.975 297.288 576.818 297.232 576.692 297.13C576.566 297.028 576.479 296.885 576.446 296.727C576.425 296.634 576.423 296.538 576.439 296.444C576.455 296.35 576.489 296.261 576.54 296.181C576.591 296.1 576.657 296.031 576.735 295.976C576.813 295.922 576.901 295.883 576.994 295.863L580.565 295.099C580.658 295.078 580.755 295.076 580.85 295.093C580.944 295.11 581.035 295.146 581.115 295.198C581.196 295.25 581.265 295.318 581.319 295.398C581.373 295.477 581.41 295.567 581.429 295.661C581.448 295.754 581.448 295.849 581.43 295.942C581.412 296.035 581.376 296.123 581.324 296.202C581.272 296.281 581.205 296.349 581.126 296.402C581.048 296.455 580.96 296.492 580.867 296.511L577.296 297.274L577.138 297.288Z" fill="#263238"/>
<path d="M589.075 284.026C587.377 288.432 585.934 292.932 584.755 297.504C583.675 302.587 583.618 313.963 583.618 313.963" fill="#263238"/>
<path d="M583.617 314.683C583.426 314.676 583.245 314.596 583.111 314.459C582.978 314.323 582.901 314.14 582.897 313.949C582.897 313.488 582.984 302.429 584.064 297.36C585.236 292.748 586.678 288.209 588.384 283.767C588.413 283.672 588.461 283.584 588.525 283.509C588.589 283.433 588.668 283.372 588.757 283.329C588.847 283.285 588.944 283.261 589.043 283.257C589.142 283.252 589.24 283.269 589.333 283.305C589.425 283.34 589.509 283.395 589.579 283.464C589.65 283.534 589.705 283.618 589.742 283.71C589.778 283.802 589.796 283.9 589.792 283.999C589.789 284.098 589.766 284.195 589.723 284.285C588.026 288.657 586.584 293.124 585.403 297.663C584.352 302.616 584.28 313.848 584.265 313.963C584.266 314.142 584.2 314.315 584.081 314.449C583.961 314.582 583.796 314.665 583.617 314.683Z" fill="#263238"/>
<path d="M320.328 438.97C322.329 406.714 318.657 348.062 379.296 355.838C444.283 364.147 425.692 440.15 425.692 440.15L320.328 438.97Z" fill="#263238"/>
<path d="M362.174 419.587C376.792 419.587 388.641 407.738 388.641 393.12C388.641 378.503 376.792 366.653 362.174 366.653C347.557 366.653 335.707 378.503 335.707 393.12C335.707 407.738 347.557 419.587 362.174 419.587Z" fill="white"/>
<path d="M365.659 366.696C353.117 364.564 339.739 373.795 338.4 383.155L388.094 387.734C386.338 377.064 375.595 368.395 365.659 366.696Z" fill="#263238"/>
<path d="M382.435 392.458C382.075 399.384 378.302 404.813 374.011 404.583C369.72 404.352 366.523 398.578 366.811 391.623C367.099 384.667 370.944 379.267 375.235 379.498C379.526 379.728 382.781 385.546 382.435 392.458Z" fill="#263238"/>
<path d="M362.174 421.027C356.655 421.027 351.259 419.391 346.67 416.324C342.081 413.258 338.504 408.899 336.391 403.8C334.279 398.7 333.727 393.089 334.803 387.676C335.88 382.262 338.538 377.29 342.441 373.387C346.344 369.484 351.316 366.826 356.73 365.749C362.143 364.672 367.755 365.225 372.854 367.337C377.953 369.45 382.312 373.026 385.378 377.616C388.445 382.205 390.082 387.601 390.082 393.12C390.074 400.519 387.131 407.613 381.899 412.845C376.667 418.077 369.573 421.02 362.174 421.027ZM362.174 368.107C357.224 368.107 352.384 369.576 348.268 372.326C344.152 375.077 340.945 378.986 339.051 383.56C337.157 388.134 336.662 393.167 337.629 398.022C338.596 402.878 340.981 407.337 344.483 410.837C347.984 414.336 352.445 416.719 357.301 417.683C362.156 418.647 367.189 418.149 371.762 416.253C376.335 414.356 380.242 411.146 382.991 407.029C385.739 402.911 387.204 398.071 387.202 393.12C387.194 386.486 384.554 380.126 379.862 375.437C375.17 370.747 368.808 368.111 362.174 368.107Z" fill="#8E51FF"/>
<path opacity="0.3" d="M418.305 438.164H418.133C418.04 438.143 417.953 438.105 417.875 438.05C417.798 437.995 417.733 437.925 417.683 437.845C417.633 437.764 417.6 437.674 417.586 437.58C417.572 437.487 417.576 437.391 417.6 437.299C417.6 437.112 422.237 417.586 417.47 397.844C417.424 397.653 417.456 397.451 417.559 397.284C417.661 397.116 417.826 396.997 418.017 396.951C418.208 396.905 418.41 396.937 418.577 397.039C418.745 397.142 418.864 397.307 418.91 397.498C423.763 417.658 419.083 437.444 419.04 437.631C418.997 437.79 418.901 437.93 418.767 438.027C418.633 438.124 418.47 438.172 418.305 438.164Z" fill="white"/>
<path opacity="0.3" d="M414.288 387.014C414.15 387.013 414.015 386.973 413.898 386.899C413.781 386.825 413.687 386.721 413.626 386.597C411.836 382.641 409.542 378.933 406.8 375.566C406.681 375.419 406.624 375.23 406.643 375.042C406.662 374.853 406.755 374.679 406.901 374.558C406.974 374.497 407.059 374.451 407.151 374.423C407.242 374.395 407.338 374.385 407.433 374.394C407.528 374.404 407.621 374.432 407.705 374.477C407.789 374.523 407.863 374.585 407.923 374.659C410.733 378.124 413.089 381.932 414.936 385.992C414.977 386.077 415.001 386.169 415.005 386.263C415.01 386.357 414.996 386.452 414.964 386.54C414.932 386.629 414.882 386.71 414.818 386.779C414.754 386.848 414.676 386.904 414.59 386.942C414.496 386.986 414.393 387.011 414.288 387.014Z" fill="white"/>
<path d="M185.371 590.285H184.838C182.929 590.231 181.118 589.422 179.806 588.033C178.494 586.645 177.786 584.793 177.84 582.883C177.893 580.974 178.703 579.164 180.091 577.851C181.479 576.539 183.332 575.831 185.241 575.885H185.371C189.533 575.885 199.541 570.83 220.478 537.826C221.034 536.949 221.773 536.203 222.644 535.639C223.515 535.074 224.498 534.705 225.525 534.556C226.552 534.407 227.599 534.482 228.595 534.775C229.59 535.068 230.51 535.574 231.293 536.256C247.735 550.391 265.668 562.694 284.774 572.947C285.658 573.349 286.452 573.926 287.107 574.643C287.763 575.36 288.266 576.202 288.588 577.119C288.909 578.035 289.042 579.008 288.978 579.977C288.913 580.946 288.654 581.892 288.214 582.759C287.775 583.625 287.165 584.393 286.42 585.017C285.676 585.642 284.814 586.109 283.884 586.391C282.955 586.673 281.978 586.764 281.012 586.659C280.046 586.553 279.112 586.254 278.265 585.778C260.508 576.342 243.723 565.181 228.153 552.456C210.6 578.88 197.582 590.285 185.371 590.285Z" fill="#263238"/>
<path d="M229.925 534.96H229.306C228.174 534.796 227.154 534.19 226.468 533.275C225.782 532.36 225.487 531.21 225.648 530.078C226.67 522.878 225.403 496.051 216.317 475.171C215.914 474.248 215.846 473.214 216.124 472.246C216.403 471.278 217.011 470.439 217.843 469.872C237.571 456.436 279.59 454.824 281.376 454.766C281.943 454.747 282.509 454.84 283.04 455.04C283.571 455.239 284.058 455.542 284.473 455.93C284.887 456.317 285.221 456.783 285.456 457.3C285.691 457.817 285.821 458.375 285.84 458.942C285.859 459.509 285.766 460.075 285.566 460.606C285.367 461.138 285.064 461.624 284.676 462.039C284.289 462.453 283.823 462.788 283.306 463.022C282.789 463.257 282.231 463.387 281.664 463.406C281.275 463.406 244.541 464.846 225.677 475.214C233.712 496.008 235.541 521.913 234.202 531.288C234.046 532.31 233.529 533.244 232.745 533.917C231.96 534.591 230.959 534.961 229.925 534.96Z" fill="#263238"/>
<path d="M237.182 529.373C234.302 522.59 221.342 523.354 213.754 529.171C209.693 532.267 204.192 541.613 203.674 545.011C203.501 545.819 203.526 546.656 203.749 547.451C203.971 548.247 204.384 548.976 204.95 549.577C205.517 550.177 206.221 550.631 207.002 550.9C207.783 551.168 208.617 551.242 209.434 551.117C214.402 550.685 221.213 543.47 221.213 543.47C216.677 547.92 222.538 551.059 231.293 544.622C236.074 541.037 240.394 536.962 237.182 529.373Z" fill="#8E51FF"/>
<path d="M484.862 440.871C484.796 440.885 484.727 440.885 484.661 440.871C484.569 440.846 484.483 440.803 484.408 440.744C484.333 440.685 484.271 440.612 484.226 440.529C484.18 440.445 484.151 440.353 484.142 440.259C484.133 440.164 484.143 440.069 484.171 439.978C486.086 433.296 488.174 429.221 490.925 427.018C490.494 425.469 490.574 423.822 491.155 422.323C491.826 420.573 493.011 419.068 494.554 418.003C494.134 417.55 493.836 416.998 493.688 416.399C493.539 415.8 493.545 415.173 493.704 414.576C494.225 412.772 495.304 411.179 496.786 410.026C496.251 409.428 495.959 408.653 495.965 407.851C495.965 403.531 503.899 397.023 512.899 395.784C513.09 395.757 513.284 395.808 513.438 395.924C513.592 396.04 513.693 396.212 513.72 396.403C513.747 396.594 513.696 396.788 513.58 396.942C513.464 397.096 513.292 397.197 513.101 397.224C504.547 398.391 497.376 404.583 497.405 407.851C497.402 408.339 497.588 408.808 497.923 409.162C499.86 407.848 502.04 406.934 504.334 406.471C506.628 406.009 508.992 406.008 511.286 406.469C515.707 407.319 517.507 408.255 517.306 409.594C516.902 412.114 507.499 412.647 501.192 411.898C500.062 411.795 498.962 411.477 497.952 410.962C496.594 411.928 495.584 413.307 495.072 414.893C494.948 415.313 494.949 415.759 495.075 416.178C495.2 416.598 495.444 416.971 495.778 417.255C498.456 415.815 502.214 415.296 507.182 416.391C513.706 417.831 513.95 418.623 514.109 419.098C514.159 419.266 514.163 419.444 514.12 419.614C514.077 419.784 513.989 419.939 513.864 420.063C512.496 421.503 502.488 420.826 497.462 419.587C496.856 419.449 496.27 419.231 495.72 418.939C494.232 419.843 493.088 421.216 492.466 422.842C492.05 423.894 491.935 425.04 492.134 426.154C492.391 426 492.655 425.861 492.926 425.736C495.907 424.296 499.507 424.555 503.957 426.456C506.837 427.709 508.277 428.832 508.421 429.97C508.427 430.262 508.354 430.55 508.209 430.803C508.065 431.057 507.854 431.266 507.6 431.41C505.397 432.85 497.707 432.648 493.704 430.517C492.783 430.017 492.017 429.275 491.486 428.371C489.139 430.531 487.238 434.376 485.51 440.41C485.458 440.541 485.369 440.654 485.254 440.735C485.139 440.817 485.003 440.864 484.862 440.871ZM492.667 427.435C493.068 428.18 493.679 428.791 494.424 429.192C497.678 430.92 504.072 431.309 506.462 430.344C506.952 430.143 507.024 429.984 507.024 429.984C507.024 429.984 506.952 429.178 503.424 427.666C499.392 425.938 496.224 425.693 493.589 426.917C493.271 427.07 492.963 427.243 492.667 427.435ZM497.477 417.975L497.837 418.075C502.526 419.156 507.352 419.52 512.15 419.155C510.448 418.524 508.694 418.042 506.909 417.715C503.807 416.875 500.527 416.965 497.477 417.975ZM499.291 409.882C499.956 410.12 500.647 410.275 501.35 410.343C508.55 411.192 514.872 410.199 515.75 409.291C515.506 409.075 514.541 408.456 510.97 407.779C506.951 406.978 502.778 407.729 499.291 409.882Z" fill="#263238"/>
<path d="M297.403 587.88C298.353 587.578 298.036 586.656 296.971 586.656H277.473C240.35 582.725 214.416 587.995 230.76 589.234C247.104 590.472 229.608 590.213 217.67 594.734C205.732 599.256 306.446 600.394 315.59 594.734C324 589.522 284.241 592.099 297.403 587.88Z" fill="#263238"/>
<path d="M436.997 593.625L267.365 587.995L260.323 423.518L460.642 427.997L436.997 593.625Z" fill="#8E51FF"/>
<path d="M320.328 590.472C320.146 590.473 319.971 590.405 319.838 590.282C319.705 590.159 319.622 589.991 319.608 589.81L306.014 424.613C306.002 424.423 306.064 424.235 306.188 424.09C306.312 423.945 306.487 423.854 306.677 423.835C306.866 423.827 307.052 423.89 307.196 424.013C307.34 424.136 307.432 424.309 307.454 424.498L321.12 589.695C321.128 589.789 321.117 589.884 321.088 589.975C321.059 590.065 321.012 590.149 320.95 590.221C320.889 590.294 320.814 590.353 320.729 590.396C320.644 590.439 320.552 590.465 320.457 590.472H320.328Z" fill="#263238"/>
<path d="M436.997 593.625L482.587 586.684L496.944 433.742L460.641 427.996L436.997 593.625Z" fill="#8E51FF"/>
<path opacity="0.2" d="M436.997 593.625L482.587 586.684L496.944 433.742L460.641 427.996L436.997 593.625Z" fill="black"/>
<path d="M281.851 556.3L277.675 458.568C277.572 456.153 277.966 453.743 278.831 451.487C279.696 449.231 281.015 447.176 282.707 445.45C284.398 443.724 286.425 442.363 288.663 441.451C290.901 440.539 293.302 440.097 295.718 440.15L422.525 443.03C425.022 443.086 427.478 443.672 429.733 444.747C431.987 445.822 433.988 447.363 435.603 449.268C437.218 451.173 438.411 453.399 439.103 455.799C439.795 458.198 439.97 460.718 439.618 463.19L425.563 561.6C424.955 565.91 422.778 569.844 419.448 572.647C416.118 575.451 411.871 576.927 407.52 576.792L298.958 573.192C294.502 573.054 290.262 571.237 287.089 568.104C283.916 564.971 282.045 560.755 281.851 556.3Z" fill="#263238"/>
<path d="M295.56 470.145L315.173 470.764L315.014 475.819L302.731 475.43L302.616 479.203L314.006 479.563L313.848 484.401L302.458 484.027L302.314 488.707L314.942 489.11L314.77 494.467L294.797 493.833L295.56 470.145Z" fill="white"/>
<path d="M318.816 494.597L319.565 470.909L331.776 471.298C333.527 471.289 335.269 471.541 336.946 472.046C338.134 472.444 339.15 473.237 339.826 474.293C340.326 475.062 340.663 475.925 340.815 476.83C340.967 477.735 340.931 478.661 340.71 479.552C340.488 480.442 340.086 481.277 339.527 482.005C338.969 482.733 338.266 483.338 337.464 483.782C336.645 484.204 335.766 484.496 334.858 484.646C335.527 484.862 336.162 485.172 336.744 485.568C337.164 485.958 337.541 486.393 337.867 486.864C338.238 487.312 338.566 487.794 338.846 488.304L342.173 495.288L333.907 495.014L330.221 487.656C329.928 486.953 329.497 486.317 328.954 485.784C328.437 485.41 327.82 485.2 327.182 485.179H326.534L326.232 494.784L318.816 494.597ZM326.621 480.744L329.702 480.845C330.357 480.805 331.007 480.714 331.646 480.571C332.128 480.498 332.565 480.246 332.87 479.866C333.182 479.482 333.359 479.006 333.374 478.512C333.402 478.183 333.355 477.852 333.238 477.543C333.121 477.234 332.936 476.955 332.698 476.726C331.894 476.207 330.945 475.96 329.99 476.021L326.765 475.92L326.621 480.744Z" fill="white"/>
<path d="M344.563 495.36L345.312 471.672L357.509 472.061C359.26 472.05 361.002 472.303 362.678 472.809C363.869 473.203 364.886 473.997 365.558 475.056C366.289 476.21 366.632 477.567 366.537 478.929C366.542 480.079 366.235 481.207 365.649 482.196C365.063 483.185 364.221 483.997 363.211 484.545C362.391 484.965 361.512 485.256 360.605 485.409C361.27 485.624 361.901 485.935 362.477 486.331C362.907 486.71 363.289 487.14 363.614 487.613C363.982 488.063 364.31 488.545 364.593 489.053L367.92 496.022L359.654 495.763L355.968 488.405C355.673 487.703 355.243 487.067 354.701 486.533C354.186 486.144 353.56 485.932 352.915 485.928H352.281L351.965 495.547L344.563 495.36ZM352.353 481.507L355.449 481.593C356.104 481.569 356.755 481.482 357.393 481.334C357.872 481.263 358.305 481.01 358.603 480.629C358.926 480.251 359.104 479.772 359.107 479.275C359.138 478.947 359.095 478.616 358.98 478.306C358.865 477.997 358.682 477.718 358.445 477.489C357.641 476.957 356.683 476.709 355.723 476.784L352.512 476.683L352.353 481.507Z" fill="white"/>
<path d="M369.101 484.358C368.989 482.705 369.246 481.048 369.851 479.506C370.457 477.964 371.396 476.575 372.602 475.439C373.808 474.303 375.251 473.449 376.827 472.937C378.402 472.425 380.072 472.268 381.715 472.478C383.373 472.423 385.026 472.702 386.575 473.298C388.123 473.894 389.536 474.796 390.729 475.948C391.795 477.175 392.599 478.605 393.094 480.153C393.589 481.7 393.765 483.331 393.609 484.948C393.621 487.301 393.068 489.622 391.997 491.716C391.026 493.43 389.574 494.822 387.821 495.72C385.754 496.708 383.467 497.144 381.182 496.987C378.904 497.006 376.65 496.514 374.587 495.547C372.831 494.594 371.397 493.14 370.469 491.371C369.38 489.202 368.906 486.777 369.101 484.358ZM376.416 484.617C376.2 486.432 376.611 488.267 377.582 489.816C378.036 490.322 378.588 490.733 379.204 491.022C379.82 491.311 380.487 491.473 381.167 491.499C381.847 491.524 382.525 491.413 383.161 491.17C383.797 490.928 384.378 490.561 384.869 490.089C385.936 488.473 386.442 486.55 386.309 484.617C386.502 482.882 386.079 481.133 385.113 479.678C384.677 479.175 384.137 478.772 383.531 478.496C382.925 478.22 382.266 478.078 381.6 478.08C380.928 478.031 380.253 478.136 379.627 478.385C379.001 478.635 378.44 479.022 377.985 479.52C376.895 480.99 376.341 482.789 376.416 484.617Z" fill="white"/>
<path d="M397.31 497.102L398.059 473.4L410.256 473.789C412.006 473.786 413.748 474.038 415.425 474.538C416.61 474.942 417.625 475.733 418.305 476.784C419.032 477.939 419.375 479.295 419.284 480.658C419.291 481.809 418.985 482.941 418.4 483.933C417.814 484.924 416.97 485.738 415.958 486.288C415.135 486.696 414.257 486.982 413.352 487.138C414.018 487.357 414.649 487.672 415.224 488.074C415.654 488.452 416.036 488.883 416.361 489.355C416.732 489.803 417.06 490.286 417.34 490.795L420.667 497.779L412.401 497.52L408.715 490.147C408.422 489.449 407.991 488.817 407.448 488.29C406.931 487.903 406.307 487.687 405.662 487.67H405.028L404.712 497.29L397.31 497.102ZM405.1 483.235L408.196 483.336C408.851 483.311 409.502 483.224 410.14 483.077C410.617 483 411.049 482.749 411.35 482.371C411.69 481.97 411.87 481.457 411.854 480.931C411.885 480.605 411.842 480.276 411.727 479.969C411.612 479.662 411.429 479.386 411.192 479.16C410.388 478.628 409.431 478.38 408.47 478.454L405.259 478.354L405.1 483.235Z" fill="white"/>
<path d="M408.96 537.35C408.69 537.355 408.421 537.303 408.173 537.196C407.925 537.089 407.702 536.931 407.52 536.731L395.193 523.238L381.888 535.392C381.519 535.729 381.031 535.907 380.532 535.885C380.032 535.864 379.562 535.645 379.224 535.276L366.897 521.784L353.592 533.937C353.223 534.275 352.735 534.453 352.236 534.431C351.736 534.409 351.266 534.19 350.928 533.822L338.587 520.329L325.296 532.483C325.102 532.658 324.874 532.793 324.626 532.877C324.379 532.961 324.117 532.994 323.856 532.972C323.355 532.943 322.886 532.721 322.545 532.353L310.219 518.875L296.928 531.014C296.557 531.353 296.067 531.531 295.565 531.509C295.063 531.488 294.59 531.268 294.249 530.899C294.081 530.716 293.951 530.502 293.867 530.269C293.782 530.035 293.745 529.788 293.757 529.54C293.769 529.292 293.83 529.049 293.937 528.825C294.044 528.601 294.194 528.4 294.379 528.235L309.067 514.8C309.438 514.461 309.928 514.283 310.43 514.305C310.932 514.326 311.405 514.546 311.745 514.915L324.072 528.408L337.363 516.254C337.74 515.923 338.229 515.748 338.731 515.764C339.232 515.791 339.703 516.014 340.041 516.384L352.368 529.876L365.673 517.723C365.855 517.554 366.068 517.423 366.301 517.337C366.534 517.251 366.782 517.212 367.029 517.223C367.277 517.234 367.521 517.294 367.745 517.399C367.97 517.505 368.171 517.654 368.337 517.838L380.664 531.331L393.969 519.177C394.338 518.84 394.826 518.662 395.325 518.684C395.825 518.705 396.295 518.924 396.633 519.292L410.4 534.24C410.646 534.515 410.806 534.855 410.862 535.22C410.918 535.585 410.866 535.958 410.714 536.294C410.561 536.629 410.314 536.914 410.002 537.111C409.691 537.309 409.329 537.412 408.96 537.408V537.35Z" fill="white"/>
<path d="M181.08 597.125L172.065 592.819L164.03 553.695L168.393 548.899L181.08 597.125Z" fill="#8E51FF"/>
<path d="M181.08 597.125L193.046 590.127L182.794 557.899L168.394 548.899L181.08 597.125Z" fill="#8E51FF"/>
<path opacity="0.2" d="M181.08 597.125L193.046 590.127L182.794 557.899L168.394 548.899L181.08 597.125Z" fill="black"/>
<path d="M377.28 604.238H376.287C374.377 604.187 372.566 603.379 371.252 601.992C369.938 600.605 369.229 598.753 369.281 596.844C369.333 594.934 370.14 593.123 371.527 591.81C372.914 590.496 374.766 589.787 376.675 589.838C387.763 590.198 411.235 583.387 424.656 570.369C425.466 569.574 426.453 568.982 427.536 568.642C450.274 561.816 458.727 575.597 459.072 576.187L446.688 583.517C446.732 583.608 446.785 583.695 446.847 583.776C446.717 583.589 443.491 579.456 433.239 581.99C416.405 597.341 390.571 604.238 377.28 604.238Z" fill="#263238"/>
<path d="M376.401 613.8L350.179 612.158L348.12 563.803L383.356 565.113L376.401 613.8Z" fill="#8E51FF"/>
<path d="M376.401 613.8L382.536 607.694L386.337 577.555L383.357 565.114L376.401 613.8Z" fill="#8E51FF"/>
<path opacity="0.2" d="M376.401 613.8L382.536 607.694L386.337 577.555L383.357 565.114L376.401 613.8Z" fill="black"/>
<path d="M528.35 595.498C527.409 595.497 526.493 595.188 525.744 594.619C510.768 583.243 490.536 563.04 482.774 543.557C482.657 543.275 482.575 542.98 482.529 542.678C478.742 520.157 475.128 472.766 474.969 470.765C474.927 470.197 474.996 469.627 475.174 469.087C475.352 468.546 475.634 468.046 476.005 467.615C476.755 466.744 477.819 466.207 478.965 466.121C480.111 466.035 481.244 466.408 482.115 467.157C482.986 467.906 483.523 468.971 483.609 470.117C483.609 470.592 487.31 518.443 490.996 540.778C498.744 559.728 519.796 579.182 531 587.736C531.721 588.283 532.252 589.043 532.518 589.909C532.784 590.774 532.771 591.702 532.481 592.56C532.192 593.417 531.64 594.163 530.904 594.69C530.167 595.217 529.284 595.5 528.379 595.498H528.35Z" fill="#263238"/>
<path d="M548.323 597.672C544.982 597.672 541.195 596.16 537.062 593.179C536.134 592.507 535.511 591.494 535.33 590.362C535.149 589.231 535.425 588.074 536.097 587.146C536.769 586.217 537.783 585.594 538.914 585.414C540.046 585.233 541.203 585.509 542.131 586.181C545.702 588.758 547.646 589.061 548.323 589.061C549.469 589.061 550.567 589.516 551.378 590.326C552.188 591.136 552.643 592.235 552.643 593.381C552.643 594.526 552.188 595.625 551.378 596.435C550.567 597.246 549.469 597.701 548.323 597.701V597.672Z" fill="#263238"/>
<path d="M538.272 593.05C542.894 579.327 561.844 582.034 568.382 584.079C573.966 585.7 579.323 588.022 584.323 590.991C587.851 593.295 587.908 597.168 583.2 599.372C577.44 602.079 562.809 599.674 562.809 599.674C570.355 602.972 562.809 608.314 549.547 603.072C545.241 601.373 536.644 598.09 538.272 593.05Z" fill="#8E51FF"/>
<path d="M492.278 476.64C490.564 488.304 480.902 496.901 473.04 495.749C465.177 494.597 464.861 484.229 466.574 472.507C468.288 460.786 471.398 452.347 479.261 453.499C487.123 454.651 493.992 465.019 492.278 476.64Z" fill="#263238"/>
<path d="M302.227 430.128C302.879 430.128 303.408 429.599 303.408 428.947C303.408 428.295 302.879 427.767 302.227 427.767C301.575 427.767 301.046 428.295 301.046 428.947C301.046 429.599 301.575 430.128 302.227 430.128Z" fill="#263238"/>
<path d="M314.222 437.443C314.222 437.677 314.153 437.905 314.023 438.099C313.894 438.293 313.709 438.445 313.494 438.534C313.278 438.623 313.04 438.647 312.811 438.601C312.582 438.556 312.372 438.443 312.207 438.278C312.042 438.113 311.929 437.903 311.884 437.674C311.838 437.444 311.861 437.207 311.951 436.991C312.04 436.776 312.191 436.591 312.386 436.461C312.58 436.332 312.808 436.262 313.042 436.262C313.355 436.262 313.655 436.387 313.877 436.608C314.098 436.83 314.222 437.13 314.222 437.443Z" fill="#263238"/>
<path d="M315.547 576.979C315.547 577.213 315.478 577.441 315.348 577.635C315.218 577.829 315.034 577.981 314.818 578.07C314.602 578.159 314.365 578.183 314.136 578.137C313.907 578.092 313.697 577.979 313.531 577.814C313.366 577.649 313.254 577.438 313.208 577.209C313.163 576.98 313.186 576.743 313.275 576.527C313.365 576.311 313.516 576.127 313.71 575.997C313.905 575.868 314.133 575.798 314.366 575.798C314.68 575.798 314.98 575.923 315.201 576.144C315.423 576.366 315.547 576.666 315.547 576.979Z" fill="#263238"/>
<path d="M326.362 585.49C326.362 585.723 326.292 585.951 326.163 586.146C326.033 586.34 325.848 586.491 325.633 586.581C325.417 586.67 325.179 586.693 324.95 586.648C324.721 586.602 324.511 586.49 324.346 586.325C324.181 586.159 324.068 585.949 324.023 585.72C323.977 585.491 324.001 585.254 324.09 585.038C324.179 584.822 324.331 584.638 324.525 584.508C324.719 584.378 324.947 584.309 325.181 584.309C325.494 584.309 325.794 584.433 326.016 584.655C326.237 584.876 326.362 585.176 326.362 585.49Z" fill="#263238"/>
<path d="M118.815 599.645C116.741 599.548 114.717 598.987 112.89 598.002C111.063 597.018 109.48 595.635 108.259 593.957C108.199 593.88 108.156 593.791 108.131 593.697C108.107 593.602 108.102 593.504 108.117 593.407C108.131 593.31 108.166 593.218 108.217 593.135C108.269 593.052 108.337 592.981 108.417 592.925C108.498 592.869 108.588 592.83 108.684 592.811C108.78 592.791 108.879 592.791 108.974 592.811C109.07 592.831 109.161 592.87 109.241 592.926C109.321 592.982 109.389 593.053 109.44 593.136C112.133 597.024 118.08 599.083 120.672 597.859C120.932 597.749 121.163 597.582 121.349 597.37C120.039 596.794 118.892 595.903 118.008 594.778C117.124 593.653 116.53 592.328 116.28 590.919C115.949 589.09 115.69 586.599 117.187 586.282C119.261 585.821 121.968 590.818 122.947 594.605C123.125 595.232 123.188 595.885 123.135 596.535C123.965 596.782 124.839 596.851 125.698 596.736C126.085 596.707 126.461 596.596 126.804 596.413C127.146 596.229 127.446 595.977 127.685 595.671C126.737 594.956 125.951 594.049 125.378 593.009C124.805 591.969 124.457 590.82 124.359 589.637C123.811 585.692 124.229 585.015 124.661 584.669C124.801 584.562 124.968 584.495 125.143 584.478C125.319 584.46 125.496 584.491 125.655 584.568C127.195 585.216 129.053 590.804 129.413 593.972C129.456 594.301 129.456 594.635 129.413 594.965C130.034 595.204 130.692 595.33 131.357 595.339C132.578 595.387 133.786 595.071 134.827 594.432C134.626 594.303 134.439 594.159 134.251 594.015C132.811 592.733 132.149 590.688 132.408 587.779C132.61 585.519 133.114 584.28 134.021 583.892C134.314 583.774 134.634 583.744 134.943 583.806C135.253 583.867 135.538 584.017 135.763 584.237C136.735 585.31 137.462 586.583 137.892 587.966C138.322 589.348 138.446 590.808 138.255 592.244C138.13 592.841 137.879 593.406 137.52 593.899C140.17 594.36 143.885 593.611 147.096 592.819C147.191 592.797 147.289 592.793 147.385 592.808C147.481 592.823 147.573 592.857 147.656 592.908C147.739 592.959 147.811 593.026 147.868 593.104C147.925 593.183 147.966 593.272 147.989 593.367C148.012 593.461 148.015 593.559 148 593.655C147.985 593.751 147.951 593.844 147.9 593.926C147.849 594.009 147.783 594.081 147.704 594.139C147.625 594.196 147.536 594.237 147.442 594.259C143.539 595.224 139.335 596.016 136.368 595.152C134.92 596.253 133.147 596.841 131.328 596.823C130.521 596.812 129.722 596.661 128.967 596.376C128.632 596.894 128.182 597.329 127.653 597.646C127.124 597.963 126.529 598.154 125.914 598.205C124.831 598.344 123.732 598.251 122.688 597.932C122.352 598.497 121.849 598.945 121.248 599.213C120.476 599.525 119.647 599.672 118.815 599.645ZM117.576 587.722C117.377 588.701 117.416 589.713 117.691 590.674C117.894 591.825 118.372 592.911 119.084 593.838C119.796 594.766 120.721 595.508 121.781 596.002C121.761 595.661 121.703 595.322 121.608 594.994C120.485 590.876 118.325 588.039 117.576 587.722ZM125.597 586.469C125.606 587.463 125.688 588.454 125.842 589.435C126.001 591.191 126.776 592.834 128.031 594.072C127.676 591.414 126.852 588.839 125.597 586.469ZM134.655 585.216C134.655 585.216 134.107 585.49 133.906 587.895C133.704 590.3 134.122 591.956 135.245 592.92C135.511 593.136 135.801 593.319 136.109 593.468C136.488 593.062 136.755 592.566 136.887 592.028C137.143 589.761 136.531 587.481 135.173 585.648C134.871 585.274 134.698 585.216 134.655 585.216Z" fill="#263238"/>
<path d="M329.573 610.531L333.475 603.763L329.573 596.995H325.397L327.759 603.763L325.397 610.531H329.573Z" fill="#263238"/>
<path d="M325.671 607.292C325.189 607.323 324.707 607.254 324.253 607.091C323.799 606.928 323.383 606.674 323.032 606.344C322.68 606.014 322.399 605.616 322.208 605.173C322.016 604.73 321.917 604.253 321.917 603.771C321.917 603.289 322.016 602.812 322.208 602.369C322.399 601.926 322.68 601.528 323.032 601.198C323.383 600.868 323.799 600.614 324.253 600.451C324.707 600.288 325.189 600.219 325.671 600.25L319.047 598.925L317.275 604.282L320.242 608.804L325.671 607.292Z" fill="#263238"/>
<path d="M326.247 596.995H318.427L314.525 603.763L318.427 610.531H326.247L330.149 603.763L326.247 596.995ZM322.344 607.291C321.646 607.294 320.962 607.09 320.38 606.704C319.798 606.318 319.344 605.768 319.074 605.124C318.805 604.479 318.733 603.769 318.868 603.084C319.002 602.399 319.337 601.769 319.83 601.274C320.323 600.779 320.951 600.442 321.636 600.304C322.321 600.167 323.031 600.236 323.676 600.503C324.322 600.769 324.874 601.221 325.262 601.802C325.65 602.382 325.858 603.065 325.858 603.763C325.858 604.697 325.488 605.592 324.829 606.253C324.171 606.914 323.277 607.288 322.344 607.291Z" fill="#8E51FF"/>
<path d="M601.762 596.535L598.867 591.509L601.762 586.484H604.858L603.115 591.509L604.858 596.535H601.762Z" fill="#8E51FF"/>
<path d="M604.656 594.13C605.016 594.157 605.377 594.109 605.717 593.99C606.057 593.871 606.369 593.682 606.634 593.437C606.898 593.192 607.109 592.895 607.253 592.564C607.397 592.234 607.471 591.877 607.471 591.516C607.471 591.156 607.397 590.799 607.253 590.469C607.109 590.138 606.898 589.841 606.634 589.596C606.369 589.351 606.057 589.162 605.717 589.043C605.377 588.924 605.016 588.876 604.656 588.903L609.581 587.924L610.891 591.898L608.703 595.253L604.656 594.13Z" fill="#8E51FF"/>
<path d="M604.238 586.484H609.998L612.878 591.509L609.998 596.535H604.238L601.358 591.509L604.238 586.484ZM607.118 594.13C607.637 594.133 608.145 593.982 608.578 593.695C609.011 593.409 609.349 593.001 609.55 592.522C609.751 592.044 609.805 591.516 609.705 591.007C609.606 590.498 609.357 590.029 608.991 589.661C608.625 589.293 608.158 589.042 607.649 588.94C607.141 588.838 606.613 588.889 606.133 589.087C605.654 589.285 605.243 589.62 604.955 590.052C604.666 590.483 604.512 590.99 604.512 591.509C604.51 591.854 604.577 592.196 604.708 592.514C604.839 592.833 605.032 593.123 605.275 593.367C605.519 593.61 605.809 593.803 606.128 593.934C606.446 594.065 606.788 594.132 607.133 594.13H607.118Z" fill="#263238"/>
<path d="M493.92 603.216H500.429C501.244 603.212 502.024 602.886 502.598 602.309C503.173 601.731 503.496 600.949 503.496 600.135C503.496 599.32 503.173 598.538 502.598 597.961C502.024 597.383 501.244 597.057 500.429 597.053H493.92C493.103 597.053 492.319 597.378 491.741 597.956C491.163 598.534 490.838 599.317 490.838 600.135C490.838 600.952 491.163 601.736 491.741 602.314C492.319 602.892 493.103 603.216 493.92 603.216Z" fill="#263238"/>
<path d="M483.451 597.398C484.055 596.3 484.968 595.402 486.076 594.816C487.184 594.23 488.44 593.981 489.688 594.099C490.936 594.218 492.122 594.699 493.099 595.484C494.077 596.269 494.804 597.323 495.19 598.515C495.576 599.708 495.604 600.988 495.271 602.196C494.939 603.405 494.26 604.49 493.318 605.318C492.376 606.145 491.213 606.679 489.971 606.853C488.73 607.027 487.465 606.834 486.331 606.298C484.774 605.495 483.597 604.108 483.058 602.441C482.518 600.774 482.66 598.962 483.451 597.398Z" fill="#8E51FF"/>
<path d="M485.207 606.296L486.992 607.137L493.193 593.982L491.409 593.141L485.207 606.296Z" fill="#263238"/>
</svg>
